<svg class="icon" viewBox="0 0 1024 1024" 
    xmlns="http://www.w3.org/2000/svg" width="200" height="200">
    <defs>
        <style/>
    </defs>
    <path d="M768 896H256c-23.467 0-42.667-19.2-42.667-42.667V426.667C213.333 403.2 232.533 384 256 384h64v-64c0-106.667 85.333-192 192-192s192 85.333 192 192v64h64c23.467 0 42.667 19.2 42.667 42.667v426.666C810.667 876.8 791.467 896 768 896zM661.333 320c0-83.2-66.133-149.333-149.333-149.333S362.667 236.8 362.667 320v64h298.666v-64zM768 426.667H256v426.666h512V426.667zm-256 128c23.467 0 42.667 19.2 42.667 42.666 0 14.934-8.534 29.867-21.334 36.267v49.067c0 12.8-8.533 21.333-21.333 21.333s-21.333-8.533-21.333-21.333V633.6c-12.8-6.4-21.334-21.333-21.334-36.267 0-23.466 19.2-42.666 42.667-42.666z" fill="#fff"/>
</svg>