<svg xmlns="http://www.w3.org/2000/svg" xmlns:xlink="http://www.w3.org/1999/xlink" viewBox="0 0 612 561.8"><defs><path id="a" d="M-2 0h614.9v561.8H-2z"/></defs><clipPath id="b"><use xlink:href="#a" overflow="visible"/></clipPath><path d="M612.4 115.4V.8c-245.2 13-256 305.5-256 305.5v203.6c0 28.1 23.4 50.9 52.4 50.9H560c28.9 0 52.4-22.8 52.4-50.9V331.8c0-28.1-23.4-50.9-52.4-50.9h-48.2C500.9 140 612.4 115.4 612.4 115.4zM-2.1 306.3v203.6c0 28.1 23.4 50.9 52.4 50.9h151.2c28.9 0 52.4-22.8 52.4-50.9V331.8c0-28.1-23.4-50.9-52.4-50.9h-48.2c-11-140.9 100.5-165.5 100.5-165.5V.8C8.7 13.8-2.1 306.3-2.1 306.3zm0 0" clip-path="url(#b)"/></svg>