<svg class="icon" viewBox="0 0 1024 1024" xmlns="http://www.w3.org/2000/svg" width="200" height="200"><defs><style/></defs><path d="M656.403 578.265c89.323-50.654 149.411-145.202 149.411-253.487C805.814 163.08 671.85 32 506.592 32c-165.253 0-299.216 131.08-299.216 292.778 0 110.045 62.06 205.892 153.789 255.91C210.221 639.396 103.51 783.616 103.51 952.227c0 21.959 18.193 39.759 40.633 39.759s40.627-17.8 40.627-39.759h.006c.218-176.778 146.747-320.024 327.475-320.024 178.703 0 323.949 140.069 327.38 314.122-.283 1.777-.444 3.828-.444 5.915 0 21.946 18.187 39.746 40.629 39.746 22.44 0 40.635-17.8 40.635-39.759-.004-170.977-109.734-316.88-264.046-373.962m-149.812-39.162c-120.968 0-219.036-95.956-219.036-214.325s98.068-214.325 219.036-214.325c120.973 0 219.04 95.956 219.04 214.325.001 118.362-98.066 214.325-219.04 214.325z" fill="#fff"/></svg>